<?xml version="1.0" encoding="UTF-8" standalone="no"?>
<svg width="32px" height="32px" viewBox="0 0 32 32" version="1.1" xmlns="http://www.w3.org/2000/svg" xmlns:xlink="http://www.w3.org/1999/xlink" xmlns:sketch="http://www.bohemiancoding.com/sketch/ns">
    <!-- Generator: Sketch 3.4.3 (16044) - http://www.bohemiancoding.com/sketch -->
    <title>Filestack Logo</title>
    <desc>Created with Sketch.</desc>
    <defs>
        <path id="path-1" d="M0,0 L84.6,0 L84.6,19.2 L0,19.2 L0,0 Z"></path>
    </defs>
    <g id="Page-1" stroke="none" stroke-width="1" fill="none" fill-rule="evenodd" sketch:type="MSPage">
        <g id="Filestack-Logo" sketch:type="MSArtboardGroup">
            <path d="M25,22 L25,3 L3,3 L3,29 L18,29 L18,32 L28,32 L28,22 L25,22 Z M0,0 L28,0 L28,32 L0,32 L0,0 Z M20,24 L28,24 L20,32 L20,24 Z M9,9 L19,9 L19,12 L9,12 L9,9 Z M9,14 L17,14 L17,17 L9,17 L9,14 Z M9,19 L12,19 L12,22 L9,22 L9,19 Z" id="Rectangle-356" fill="#EF4925" sketch:type="MSShapeGroup"></path>
        </g>
    </g>
</svg>